<svg xmlns="http://www.w3.org/2000/svg" viewBox="0 0 300 300"><path fill="#00c300" d="M245.741 0H54.679C24.677-.042.043 24.249 0 54.257v191.057c-.042 30.01 24.255 54.645 54.258 54.686H245.32c30.01.042 54.637-24.249 54.68-54.265l-.001-191.06C300.041 24.671 275.749.041 245.741 0z"/><path fill="#fff" d="M259.877 136.778c0-48.99-49.115-88.846-109.482-88.846-60.365 0-109.482 39.856-109.482 88.846 0 43.917 38.949 80.702 91.563 87.659 3.563.769 8.416 2.354 9.644 5.4 1.104 2.766.724 7.1.354 9.896 0 0-1.279 7.727-1.562 9.375-.476 2.767-2.201 10.823 9.483 5.901 11.686-4.922 63.047-37.127 86.016-63.568h-.005c15.867-17.396 23.471-35.056 23.471-54.663zm-152.34 29.147H85.785a5.748 5.748 0 0 1-5.74-5.744v-43.505a5.747 5.747 0 0 1 5.74-5.741 5.746 5.746 0 0 1 5.739 5.741v37.764h16.013a5.746 5.746 0 0 1 5.741 5.742 5.746 5.746 0 0 1-5.741 5.743zm22.5-5.743c0 3.168-2.575 5.744-5.737 5.744a5.747 5.747 0 0 1-5.739-5.744v-43.505a5.747 5.747 0 0 1 5.739-5.741 5.747 5.747 0 0 1 5.737 5.741v43.505zm52.365 0a5.72 5.72 0 0 1-3.924 5.446 5.742 5.742 0 0 1-1.824.298 5.767 5.767 0 0 1-4.587-2.298l-22.293-30.359v26.914a5.747 5.747 0 0 1-5.741 5.744 5.748 5.748 0 0 1-5.742-5.744v-43.505a5.736 5.736 0 0 1 5.747-5.741c1.791 0 3.509.856 4.584 2.295l22.3 30.362v-26.917a5.749 5.749 0 0 1 5.74-5.741 5.745 5.745 0 0 1 5.739 5.741v43.505zm35.2-27.494a5.747 5.747 0 0 1 5.742 5.743 5.746 5.746 0 0 1-5.742 5.739h-16.008v10.27h16.008a5.75 5.75 0 0 1 5.742 5.742 5.75 5.75 0 0 1-5.742 5.744h-21.754a5.75 5.75 0 0 1-5.74-5.744v-21.738-21.768a5.747 5.747 0 0 1 5.74-5.741h21.754a5.747 5.747 0 0 1 5.742 5.741 5.746 5.746 0 0 1-5.742 5.741h-16.008v10.271h16.008z"/></svg>