<svg xmlns="http://www.w3.org/2000/svg" viewBox="0 0 512 512"><path fill="#2FB4B4" d="M275.227 161.553l-34.01.008c-2.225 0-4.119.632-5.712 1.894l-23.796 14.48c-1.582 1.278-2.214 2.534-2.214 4.443l.01 39.322c0 2.548 1.579 3.172 3.488 1.895l21.897-11.926h.628l.04 140.429c0 1.895 1.274 3.158 3.176 3.158l36.55-.007c1.909 0 3.169-1.271 3.169-3.165l-.056-187.374c.002-1.901-1.261-3.157-3.17-3.157zM139.751 425.911c-17.289-5.507-34.575-3.84-45.381 3.18 4.098 11.734 16.794 22.896 34.09 28.381 17.282 5.493 34.572 3.84 45.373-3.187-4.097-11.727-16.797-22.911-34.082-28.374zM126.603 407.318c8.478-8.768 12.656-23.975 9.837-40.116-2.817-16.132-11.885-28.888-22.804-34.05-8.47 8.76-12.666 23.975-9.84 40.115 2.816 16.127 11.892 28.904 22.807 34.051zM68.398 359.405c-14.924-9.421-31.861-11.925-44.146-7.718.58 12.322 9.517 26.127 24.442 35.548 14.921 9.413 31.854 11.917 44.143 7.703-.585-12.33-9.517-26.112-24.439-35.533zM79.266 273.785c-9.271 6.843-15.567 20.406-15.482 35.885.08 15.48 6.517 28.778 15.86 35.247 9.274-6.858 15.567-20.406 15.483-35.892-.084-15.473-6.521-28.764-15.861-35.24zM55.137 248.649c11.41-2.32 23.182-11.94 30.099-25.972 6.935-14.032 7.156-28.734 1.7-38.485-11.419 2.328-23.194 11.94-30.11 25.987-6.928 14.017-7.16 28.726-1.689 38.47zM38.428 213.19c8.602-6.888 14.088-20.069 13.39-34.872-.686-14.804-7.372-27.272-16.58-33.132-8.603 6.881-14.098 20.054-13.398 34.865.679 14.795 7.376 27.279 16.588 33.139zM124.639 116.915c-10.519-1.05-23.634 4.148-33.984 14.488-10.346 10.339-15.163 23.057-13.544 32.992 10.526 1.05 23.634-4.148 33.98-14.488 10.346-10.339 15.167-23.043 13.548-32.992zM93.321 106.473c4.479-12.527 3.267-24.937-2.254-32.603-9.389 3.113-18.369 12.402-22.856 24.937-4.483 12.512-3.267 24.93 2.262 32.596 9.381-3.129 18.361-12.403 22.848-24.93zM144.135 82.05c9.678-9.583 14.227-21.391 12.751-30.665-9.781-1.006-22 3.775-31.689 13.365-9.667 9.575-14.205 21.398-12.744 30.65 9.789 1.02 22.011-3.761 31.682-13.35zM34.932 262.476c-8.462-13.012-21.184-20.928-32.739-21.64-4.27 10.486-2.342 25.098 6.109 38.096 8.452 13.005 21.185 20.928 32.739 21.633 4.259-10.493 2.343-25.099-6.109-38.089zM372.251 425.911c-17.285 5.463-29.982 16.647-34.086 28.374 10.802 7.027 28.087 8.68 45.38 3.187 17.293-5.486 29.989-16.647 34.086-28.381-10.809-7.021-28.087-8.687-45.38-3.18zM375.562 367.203c-2.82 16.14 1.359 31.347 9.84 40.116 10.912-5.148 19.996-17.924 22.808-34.05 2.82-16.14-1.373-31.355-9.847-40.115-10.919 5.161-19.981 17.916-22.801 34.049zM443.603 359.405c-14.92 9.421-23.857 23.204-24.444 35.533 12.292 4.214 29.233 1.71 44.147-7.703 14.928-9.422 23.872-23.226 24.452-35.548-12.286-4.207-29.226-1.703-44.155 7.718zM432.735 273.785c-9.34 6.476-15.787 19.767-15.854 35.239-.088 15.487 6.205 29.034 15.465 35.892 9.354-6.469 15.787-19.767 15.868-35.247.088-15.479-6.204-29.041-15.479-35.884zM425.077 184.192c-5.463 9.752-5.25 24.453 1.682 38.485 6.924 14.032 18.695 23.652 30.114 25.972 5.464-9.744 5.228-24.453-1.696-38.47-6.911-14.048-18.689-23.659-30.1-25.987zM473.578 213.19c9.208-5.86 15.905-18.343 16.588-33.139.698-14.811-4.795-27.984-13.401-34.865-9.208 5.86-15.891 18.328-16.581 33.132-.705 14.803 4.795 27.984 13.394 34.872zM434.887 164.395c1.623-9.936-3.202-22.654-13.54-32.992-10.354-10.339-23.461-15.538-33.991-14.488-1.608 9.95 3.202 22.653 13.555 32.992 10.346 10.339 23.446 15.538 33.976 14.488zM441.533 131.402c5.522-7.666 6.74-20.084 2.254-32.596-4.479-12.535-13.46-21.824-22.852-24.937-5.522 7.666-6.734 20.076-2.254 32.603 4.494 12.528 13.459 21.802 22.852 24.93zM399.545 95.399c1.468-9.252-3.07-21.074-12.741-30.65-9.685-9.59-21.904-14.371-31.685-13.365-1.476 9.274 3.077 21.082 12.748 30.665 9.671 9.59 21.889 14.371 31.678 13.35zM509.808 240.836c-11.55.713-24.276 8.628-32.735 21.64-8.459 12.99-10.368 27.595-6.109 38.088 11.551-.706 24.291-8.628 32.735-21.633 8.452-12.997 10.376-27.609 6.109-38.095z"/></svg>