<svg xmlns="http://www.w3.org/2000/svg" viewBox="-18 -18 572.009 572"><path fill="#FB473E" d="M268.156-.074C159.7-.094 61.914 65.234 20.41 165.438-21.086 265.644 1.867 380.98 78.582 457.647c104.703 104.704 274.453 104.704 379.152 0 104.7-104.695 104.7-274.445 0-379.148A266.44 266.44 0 0 0 268.156-.074zM96.168 440.066C4.645 348.516.868 201.32 87.562 105.191l343.481 343.48c-95.29 86.056-242.957 83.188-334.875-8.605zm352.586-9.105L105.274 87.477C201.463.949 348.523 4.73 440.147 96.086c91.52 91.547 95.305 238.742 8.606 334.875zm0 0"/></svg>