<svg xmlns="http://www.w3.org/2000/svg" viewBox="0 0 512 512"><path fill="#05627B" d="M357.521 196.512C380.221 175.83 394.5 146.056 394.5 113c0-62.309-50.691-113-113-113-62.164 0-112.765 50.453-112.999 112.563l-.484 11.604c-.011.277-.017.556-.017.833v320c0 14.888-12.112 27-27 27s-27-12.112-27-27c0-11.046-8.954-20-20-20s-20 8.954-20 20c0 36.944 30.056 67 67 67s67-30.056 67-67v-29.18c24.412 24.205 57.988 39.18 95 39.18 34.199 0 66.825-12.813 91.867-36.078 8.092-7.518 8.558-20.173 1.04-28.265-7.518-8.092-20.173-8.559-28.265-1.04C350.023 405.985 327.066 415 303 415c-52.383 0-95-42.617-95-95V125.417l.483-11.584c.011-.277.017-.556.017-.833 0-40.252 32.748-73 73-73s73 32.748 73 73c0 38.098-29.334 69.473-66.604 72.723l-7.212.294c-10.878.444-19.402 9.507-19.181 20.392.223 10.883 9.11 19.591 19.997 19.591 2.993 0 5.955-.116 8.89-.347l15.161-.618C356.76 226.392 398 268.47 398 320c0 11.046 8.954 20 20 20s20-8.954 20-20c0-55.047-33.122-102.498-80.479-123.488z"/></svg>