<svg xmlns="http://www.w3.org/2000/svg" viewBox="0 0 512 512"><path fill="#2FB4B4" d="M139.75 425.912c-17.286-5.507-34.571-3.84-45.38 3.18 4.097 11.734 16.794 22.896 34.086 28.381 17.286 5.493 34.571 3.84 45.38-3.187-4.097-11.727-16.8-22.911-34.086-28.374zM126.606 407.32c8.474-8.768 12.652-23.976 9.832-40.116-2.812-16.133-11.889-28.888-22.8-34.05-8.474 8.76-12.674 23.975-9.84 40.115 2.812 16.126 11.888 28.903 22.808 34.051zM68.397 359.406c-14.929-9.421-31.862-11.925-44.147-7.718.58 12.322 9.516 26.127 24.446 35.548 14.92 9.414 31.854 11.918 44.139 7.703-.58-12.33-9.517-26.113-24.438-35.533zM79.265 273.785c-9.274 6.844-15.567 20.406-15.487 35.886.088 15.479 6.521 28.778 15.862 35.247 9.282-6.858 15.567-20.406 15.487-35.893-.082-15.473-6.521-28.764-15.862-35.24zM55.136 248.649c11.411-2.32 23.182-11.94 30.099-25.972 6.932-14.033 7.153-28.734 1.704-38.486-11.426 2.328-23.197 11.94-30.114 25.988-6.925 14.017-7.16 28.726-1.689 38.47zM38.43 213.19c8.599-6.888 14.084-20.069 13.387-34.872-.683-14.804-7.373-27.273-16.581-33.132-8.598 6.881-14.099 20.054-13.401 34.866.682 14.794 7.379 27.278 16.595 33.138zM124.638 116.914c-10.516-1.05-23.63 4.149-33.984 14.488-10.346 10.339-15.163 23.058-13.54 32.993 10.523 1.05 23.63-4.148 33.976-14.488 10.346-10.339 15.163-23.043 13.548-32.993zM93.32 106.472c4.479-12.527 3.268-24.937-2.254-32.603-9.384 3.113-18.372 12.402-22.851 24.937-4.487 12.512-3.276 24.93 2.261 32.596 9.376-3.128 18.356-12.403 22.844-24.93zM144.134 82.049c9.678-9.583 14.224-21.391 12.755-30.665-9.781-1.006-22 3.774-31.693 13.365-9.664 9.575-14.202 21.398-12.747 30.65 9.795 1.021 22.014-3.76 31.685-13.35zM34.935 262.477c-8.467-13.012-21.192-20.928-32.743-21.641-4.266 10.486-2.342 25.099 6.11 38.096 8.452 13.005 21.185 20.928 32.743 21.633 4.258-10.493 2.334-25.099-6.11-38.088zM372.248 425.912c-17.286 5.464-29.975 16.647-34.088 28.374 10.809 7.027 28.095 8.68 45.381 3.187 17.3-5.486 29.989-16.647 34.087-28.381-10.809-7.02-28.08-8.688-45.38-3.18zM375.567 367.204c-2.82 16.14 1.35 31.348 9.84 40.116 10.911-5.148 19.988-17.925 22.808-34.051 2.82-16.14-1.38-31.355-9.855-40.115-10.912 5.162-19.973 17.917-22.793 34.05zM443.608 359.406c-14.922 9.421-23.865 23.204-24.453 35.533 12.292 4.215 29.24 1.711 44.147-7.703 14.936-9.422 23.88-23.226 24.453-35.548-12.278-4.208-29.226-1.704-44.147 7.718zM432.74 273.785c-9.34 6.476-15.788 19.768-15.861 35.24-.088 15.487 6.212 29.034 15.464 35.893 9.356-6.469 15.788-19.768 15.876-35.247.089-15.48-6.212-29.043-15.479-35.886zM425.074 184.191c-5.463 9.752-5.243 24.453 1.69 38.486 6.917 14.032 18.695 23.652 30.106 25.972 5.463-9.744 5.228-24.453-1.689-38.47-6.918-14.048-18.696-23.66-30.107-25.988zM473.582 213.19c9.208-5.86 15.905-18.344 16.581-33.139.704-14.812-4.788-27.985-13.394-34.866-9.208 5.86-15.89 18.328-16.58 33.132-.705 14.803 4.787 27.985 13.393 34.873zM434.884 164.394c1.63-9.935-3.202-22.654-13.541-32.993-10.354-10.339-23.454-15.538-33.984-14.488-1.615 9.95 3.202 22.654 13.556 32.993 10.339 10.34 23.439 15.539 33.969 14.488zM441.537 131.402c5.522-7.666 6.741-20.083 2.247-32.596-4.48-12.535-13.452-21.824-22.852-24.937-5.522 7.666-6.727 20.076-2.247 32.603 4.494 12.527 13.453 21.802 22.852 24.93zM399.549 95.398c1.468-9.252-3.07-21.074-12.748-30.65-9.678-9.59-21.897-14.371-31.678-13.365-1.484 9.274 3.07 21.082 12.748 30.665 9.664 9.591 21.883 14.372 31.678 13.35zM509.814 240.836c-11.558.713-24.276 8.628-32.736 21.641-8.459 12.99-10.368 27.595-6.11 38.088 11.543-.706 24.291-8.628 32.736-21.633 8.444-12.997 10.368-27.61 6.11-38.096zM290.665 250.507v-.536c12.821-8.371 19.878-21.456 19.871-36.635-.008-28.506-20.15-49.169-54.941-49.155-31.4.008-51.534 17.285-55.72 40.835-.257 1.564.529 2.606 2.1 2.871l28.514 5.478c1.572.265 2.621-.25 3.143-1.821 2.607-9.95 8.892-16.486 20.142-16.486 12.549-.007 20.15 8.365 20.15 20.914 0 13.607-8.636 22.235-21.978 22.242h-7.064c-1.564 0-2.607 1.05-2.607 2.614l.008 25.384c0 1.572 1.05 2.607 2.607 2.607h7.592c15.179-.008 24.857 9.15 24.864 25.114 0 13.342-8.371 23.02-21.971 23.028-12.557 0-20.15-7.328-23.293-16.742-.521-1.556-1.572-2.35-3.136-2.085l-28.777 5.5c-1.564.529-2.35 1.829-2.086 3.4 4.98 25.634 27.478 40.805 57.82 40.798 33.484-.014 58.07-21.735 58.062-54.177-.007-23.542-12.564-37.927-23.3-43.148z"/></svg>