<svg xmlns="http://www.w3.org/2000/svg" viewBox="0 0 612 612"><path fill="#FAFAFA" d="M342.982 612h-73.975c-14.775 0-27.011-11.073-28.467-25.747l-7.584-45.446a245.235 245.235 0 0 1-41.32-17.141l-38.064 27.183c-4.551 3.772-10.982 6.077-17.576 6.077-7.646 0-14.825-2.982-20.236-8.393l-52.303-52.304c-10.446-10.446-11.255-26.93-1.901-38.357l26.778-37.508a244.557 244.557 0 0 1-17.141-41.311l-46.114-7.695C11.083 370.014 0 357.777 0 342.982v-73.964c0-14.775 11.073-27.011 25.747-28.478l45.446-7.605a245.248 245.248 0 0 1 17.131-41.3l-27.173-38.064C52.191 142.7 53 126.217 63.457 115.78l52.313-52.323c10.083-10.062 27.345-10.901 38.327-1.921l37.559 26.789a243.906 243.906 0 0 1 41.3-17.131l7.675-46.104C241.997 11.073 254.243 0 269.018 0h73.974a28.534 28.534 0 0 1 28.478 25.727l7.595 45.467a244.746 244.746 0 0 1 41.29 17.131l38.074-27.183c4.541-3.762 10.973-6.058 17.565-6.058 7.646 0 14.825 2.973 20.226 8.373l52.303 52.323c10.437 10.406 11.275 26.879 1.941 38.317l-26.788 37.539a243.766 243.766 0 0 1 17.131 41.3l46.114 7.696C600.937 242.007 612 254.243 612 269.018v73.964c0 14.795-11.073 27.021-25.768 28.446l-45.426 7.595a244.332 244.332 0 0 1-17.131 41.32l27.183 38.055c8.95 10.911 8.11 27.405-2.346 37.821l-52.293 52.293c-10.042 10.052-27.345 10.941-38.357 1.911l-37.508-26.769a244.266 244.266 0 0 1-41.29 17.142l-7.706 46.124c-1.375 14.007-13.611 25.08-28.376 25.08zM190.907 501.641c1.699 0 3.408.424 4.945 1.294a225.353 225.353 0 0 0 48.794 20.245 10.115 10.115 0 0 1 7.22 8.07l8.707 52.344c.506 4.874 4.177 8.181 8.434 8.181h73.975c4.257 0 7.918-3.297 8.333-7.514l8.828-53.011a10.1 10.1 0 0 1 7.221-8.06 225.292 225.292 0 0 0 48.763-20.246 10.085 10.085 0 0 1 10.821.597l43.19 30.854c4.359 3.509 8.799 2.78 11.751-.162l52.313-52.313a8.349 8.349 0 0 0 .586-11.234l-31.268-43.718a10.116 10.116 0 0 1-.597-10.83 222.819 222.819 0 0 0 20.226-48.764 10.11 10.11 0 0 1 8.079-7.23l52.354-8.728c4.875-.506 8.182-4.156 8.182-8.414v-73.964c0-4.257-3.297-7.928-7.514-8.343l-53.011-8.818a10.123 10.123 0 0 1-8.08-7.23 222.698 222.698 0 0 0-20.226-48.743 10.12 10.12 0 0 1 .597-10.831l30.874-43.211c3.125-3.863 2.872-8.677-.182-11.731L481.91 77.797c-2.942-2.943-8.009-3.195-11.205-.576l-43.747 31.278a10.102 10.102 0 0 1-10.82.597 224.77 224.77 0 0 0-48.764-20.246c-3.762-1.052-6.573-4.207-7.221-8.07l-8.717-52.343c-.536-4.976-4.126-8.211-8.454-8.211h-73.975c-4.338 0-7.918 3.226-8.343 7.514l-8.798 53a10.1 10.1 0 0 1-7.22 8.07c-17.03 4.824-33.433 11.62-48.753 20.246-3.438 1.912-7.655 1.689-10.831-.597L141.83 77.585c-4.349-3.479-8.808-2.781-11.751.182L77.767 130.08a8.317 8.317 0 0 0-.556 11.195l31.258 43.758a10.12 10.12 0 0 1 .597 10.831c-8.616 15.331-15.422 31.733-20.246 48.753-1.052 3.762-4.207 6.574-8.07 7.221l-52.343 8.727c-4.956.526-8.181 4.116-8.181 8.455v73.964c0 4.328 3.216 7.908 7.493 8.322l53.021 8.818a10.1 10.1 0 0 1 8.07 7.23 225.373 225.373 0 0 0 20.246 48.784 10.083 10.083 0 0 1-.597 10.811L77.605 470.14c-3.155 3.883-2.913 8.696.151 11.761l52.313 52.303c2.973 2.963 8.02 3.226 11.205.576l43.748-31.258a10.191 10.191 0 0 1 5.885-1.881zm115.103-74.592c-66.764 0-121.079-54.305-121.079-121.059 0-66.764 54.315-121.079 121.079-121.079 66.765 0 121.069 54.315 121.069 121.079-.01 66.743-54.315 121.059-121.069 121.059zm0-221.913c-55.609 0-100.854 45.245-100.854 100.854 0 55.6 45.244 100.833 100.854 100.833 55.6 0 100.844-45.233 100.844-100.833-.01-55.61-45.245-100.854-100.844-100.854z"/></svg>