<svg xmlns="http://www.w3.org/2000/svg" viewBox="0 0 44.236 44.236"><path fill="#FAFAFA" d="M22.118 44.236C9.922 44.236 0 34.314 0 22.118S9.922 0 22.118 0s22.118 9.922 22.118 22.118-9.922 22.118-22.118 22.118zm0-42.736C10.749 1.5 1.5 10.749 1.5 22.118c0 11.368 9.249 20.618 20.618 20.618 11.368 0 20.618-9.25 20.618-20.618 0-11.369-9.25-20.618-20.618-20.618z"/><path fill="#FAFAFA" d="M22.35 24.956a.75.75 0 0 1-.75-.75V12.578a.75.75 0 0 1 1.5 0v11.628a.75.75 0 0 1-.75.75z"/><circle cx="22.35" cy="29.631" r="1.41" fill="#FAFAFA"/><path fill="#FAFAFA" d="M22.35 31.291c-.915 0-1.66-.745-1.66-1.66s.745-1.66 1.66-1.66c.916 0 1.66.745 1.66 1.66s-.744 1.66-1.66 1.66zm0-2.82c-.64 0-1.16.521-1.16 1.16s.521 1.16 1.16 1.16c.639 0 1.16-.521 1.16-1.16s-.521-1.16-1.16-1.16z"/></svg>